<svg xmlns="http://www.w3.org/2000/svg" version="1.1" width="1024px" height="1024px" style="shape-rendering:geometricPrecision; text-rendering:geometricPrecision; image-rendering:optimizeQuality; fill-rule:evenodd; clip-rule:evenodd" xmlns:xlink="http://www.w3.org/1999/xlink">
  <circle cx="512" cy="512" r="512" fill="#101820"/>
  <g><path style="opacity:1" fill="#fdfdfd" d="M 477.5,96.5 C 613.863,89.1333 728.697,134.8 822,233.5C 914.296,340.666 946.63,463.999 919,603.5C 885.038,736.785 805.871,832.619 681.5,891C 587.12,931.144 490.453,937.477 391.5,910C 268.465,870.63 180.298,792.13 127,674.5C 74.4333,543.66 83.4333,417.327 154,295.5C 229.984,178.22 337.817,111.886 477.5,96.5 Z"/></g>
  <g><path style="opacity:1" fill="#101820" d="M 481.5,162.5 C 605.597,156.157 707.43,200.157 787,294.5C 854.674,384.178 876.674,484.178 853,594.5C 826.967,692.501 770.134,766.668 682.5,817C 594.717,863.272 503.051,872.939 407.5,846C 305.471,812.237 232.304,746.403 188,648.5C 157.216,572.507 152.216,494.841 173,415.5C 203.018,319.157 262.518,247.323 351.5,200C 392.635,179.45 435.969,166.95 481.5,162.5 Z"/></g>
  <g><path style="opacity:1" fill="#fdfefe" d="M 464.5,293.5 C 474.14,291.897 480.64,295.564 484,304.5C 484.667,325.5 484.667,346.5 484,367.5C 483,369.5 482,371.5 481,373.5C 434.347,418.986 388.181,464.986 342.5,511.5C 389.207,558.707 436.04,605.707 483,652.5C 484.634,674.436 484.967,696.436 484,718.5C 479.443,729.02 471.943,731.853 461.5,727C 391.694,658.194 322.194,589.028 253,519.5C 249.667,514.167 249.667,508.833 253,503.5C 323.089,432.91 393.589,362.91 464.5,293.5 Z"/></g>
  <g><path style="opacity:1" fill="#fdfdfd" d="M 553.5,293.5 C 557.605,293.234 561.605,293.734 565.5,295C 635.639,364.139 705.473,433.639 775,503.5C 778.777,510.502 777.943,517.002 772.5,523C 710.527,583.972 648.861,645.306 587.5,707C 580.197,713.302 573.197,719.968 566.5,727C 555.967,732.149 548.467,729.316 544,718.5C 543.033,696.436 543.366,674.436 545,652.5C 591.96,605.707 638.793,558.707 685.5,511.5C 639.126,464.626 592.626,417.96 546,371.5C 545.333,370.167 544.667,368.833 544,367.5C 543.333,346.5 543.333,325.5 544,304.5C 545.788,299.556 548.955,295.889 553.5,293.5 Z"/></g>
</svg>
